<svg xmlns="http://www.w3.org/2000/svg" id="Camada_2" viewBox="0 0 298.1 74.15"><defs><style>.cls-1{fill:#00205b;}</style></defs><g id="Camada_1-2"><path class="cls-1" d="M86.27,22.44c-.85,0-1.57-.28-2.18-.84-.6-.56-.9-1.24-.9-2.04s.3-1.48.91-2.04c.61-.57,1.33-.85,2.17-.85s1.57.28,2.18.84c.6.56.9,1.24.9,2.04s-.3,1.48-.9,2.04c-.6.57-1.33.85-2.18.85ZM83.41,45.67v-20.58h5.71v20.58h-5.71Z"></path><path class="cls-1" d="M99.38,33.78v11.9h-5.71v-20.58h5.44v3.63h.24c.45-1.2,1.22-2.15,2.29-2.85,1.07-.7,2.37-1.05,3.9-1.05,1.43,0,2.68.31,3.74.94,1.06.63,1.89,1.52,2.48,2.67.59,1.16.88,2.53.88,4.13v13.1h-5.71v-12.09c0-1.26-.31-2.24-.96-2.95-.65-.71-1.55-1.07-2.69-1.07-.77,0-1.44.16-2.03.5-.58.33-1.04.81-1.37,1.44-.33.63-.49,1.39-.5,2.27Z"></path><path class="cls-1" d="M134.25,30.96l-5.23.32c-.09-.45-.28-.85-.58-1.21-.29-.36-.68-.65-1.16-.87-.48-.22-1.05-.33-1.71-.33-.88,0-1.63.19-2.24.56s-.91.86-.91,1.48c0,.49.2.91.59,1.25.39.34,1.07.61,2.02.82l3.72.75c2,.41,3.49,1.07,4.48,1.98.98.91,1.47,2.11,1.47,3.59,0,1.35-.39,2.53-1.19,3.55-.79,1.02-1.87,1.81-3.24,2.38-1.37.57-2.95.85-4.74.85-2.72,0-4.89-.57-6.51-1.71-1.61-1.14-2.56-2.69-2.83-4.66l5.61-.29c.17.83.58,1.46,1.23,1.9s1.49.65,2.51.65,1.81-.19,2.42-.58c.61-.39.92-.89.93-1.51,0-.52-.23-.94-.66-1.28-.43-.33-1.09-.59-1.98-.77l-3.56-.71c-2.01-.4-3.5-1.1-4.48-2.09-.98-.99-1.47-2.25-1.47-3.79,0-1.32.36-2.46,1.08-3.42.72-.96,1.73-1.69,3.04-2.21,1.31-.52,2.84-.78,4.6-.78,2.6,0,4.65.55,6.14,1.65,1.5,1.1,2.37,2.59,2.62,4.49Z"></path><path class="cls-1" d="M149.27,25.1v4.29h-12.39v-4.29h12.39ZM139.69,20.16h5.71v19.19c0,.53.08.94.24,1.23.16.29.39.49.68.61s.63.17,1.01.17c.27,0,.54-.02.8-.07s.47-.09.62-.11l.9,4.25c-.29.09-.69.19-1.21.31-.52.12-1.15.19-1.89.22-1.38.05-2.58-.13-3.61-.55-1.03-.42-1.83-1.07-2.4-1.96-.57-.88-.85-2-.84-3.35v-19.94Z"></path><path class="cls-1" d="M155.85,22.44c-.85,0-1.57-.28-2.18-.84-.6-.56-.9-1.24-.9-2.04s.3-1.48.91-2.04c.61-.57,1.33-.85,2.17-.85s1.57.28,2.18.84c.6.56.9,1.24.9,2.04s-.3,1.48-.9,2.04-1.33.85-2.18.85ZM152.98,45.67v-20.58h5.71v20.58h-5.71Z"></path><path class="cls-1" d="M174.19,25.1v4.29h-12.39v-4.29h12.39ZM164.61,20.16h5.71v19.19c0,.53.08.94.24,1.23.16.29.39.49.68.61s.63.17,1.01.17c.27,0,.54-.02.8-.07s.47-.09.62-.11l.9,4.25c-.29.09-.69.19-1.21.31-.52.12-1.15.19-1.89.22-1.38.05-2.58-.13-3.61-.55-1.03-.42-1.83-1.07-2.41-1.96-.57-.88-.85-2-.84-3.35v-19.94Z"></path><path class="cls-1" d="M191.09,36.91v-11.82h5.71v20.58h-5.48v-3.74h-.21c-.46,1.21-1.24,2.17-2.31,2.91s-2.39,1.1-3.93,1.1c-1.38,0-2.59-.31-3.63-.94s-1.86-1.51-2.45-2.67c-.58-1.15-.88-2.53-.89-4.14v-13.1h5.71v12.08c0,1.21.33,2.17.98,2.88.64.71,1.5,1.06,2.59,1.06.69,0,1.33-.16,1.93-.48.6-.32,1.08-.79,1.45-1.41.37-.62.55-1.4.54-2.32Z"></path><path class="cls-1" d="M212.3,25.1v4.29h-12.39v-4.29h12.39ZM202.72,20.16h5.71v19.19c0,.53.08.94.24,1.23.16.29.39.49.68.61.29.12.63.17,1.01.17.27,0,.54-.02.8-.07s.47-.09.62-.11l.9,4.25c-.29.09-.69.19-1.21.31-.52.12-1.15.19-1.89.22-1.38.05-2.58-.13-3.61-.55-1.03-.42-1.83-1.07-2.41-1.96-.57-.88-.85-2-.84-3.35v-19.94Z"></path><path class="cls-1" d="M225.31,46.08c-2.08,0-3.88-.44-5.39-1.33-1.51-.89-2.68-2.13-3.5-3.72s-1.23-3.45-1.23-5.55.41-3.99,1.23-5.58,1.99-2.84,3.5-3.72c1.51-.89,3.31-1.33,5.39-1.33s3.88.44,5.39,1.33c1.51.89,2.68,2.13,3.5,3.72.82,1.59,1.23,3.45,1.23,5.58s-.41,3.96-1.23,5.55c-.82,1.59-1.99,2.84-3.5,3.72-1.51.89-3.31,1.33-5.39,1.33ZM225.34,41.65c.95,0,1.74-.27,2.37-.81.63-.54,1.11-1.28,1.44-2.22.33-.94.49-2.01.49-3.2s-.16-2.26-.49-3.2c-.33-.94-.81-1.68-1.44-2.22-.63-.54-1.42-.82-2.37-.82s-1.76.27-2.4.82c-.65.54-1.13,1.29-1.46,2.22-.33.94-.49,2.01-.49,3.2s.16,2.26.49,3.2c.33.94.81,1.68,1.46,2.22.65.54,1.45.81,2.4.81Z"></path><path class="cls-1" d="M84.09,73.82v-20.47h1.21v8.55h.12c.24-.66.58-1.27,1.02-1.82s.99-1,1.64-1.33,1.42-.51,2.29-.51c1.23,0,2.31.34,3.23,1.02s1.63,1.62,2.14,2.82c.51,1.2.76,2.56.76,4.1s-.25,2.93-.76,4.12c-.51,1.2-1.22,2.13-2.13,2.81-.91.68-1.99,1.02-3.23,1.02-.87,0-1.64-.17-2.29-.5-.65-.34-1.2-.78-1.64-1.34-.44-.56-.78-1.16-1.03-1.82h-.14v3.35h-1.19ZM85.29,66.17c0,1.31.2,2.47.59,3.5.4,1.03.97,1.84,1.71,2.44s1.64.89,2.68.89,1.95-.3,2.7-.91c.75-.6,1.32-1.42,1.71-2.45.4-1.03.59-2.19.59-3.48s-.2-2.44-.59-3.47c-.4-1.03-.97-1.84-1.71-2.43-.75-.6-1.65-.89-2.7-.89s-1.93.29-2.68.88-1.32,1.4-1.71,2.42c-.4,1.02-.59,2.19-.59,3.49Z"></path><path class="cls-1" d="M100.7,73.82v-15.35h1.19v2.4h.11c.33-.79.9-1.42,1.69-1.89.79-.48,1.7-.71,2.71-.71h.32c.11,0,.21,0,.3.01v1.23c-.08,0-.17-.02-.28-.04-.11-.02-.24-.02-.4-.02-.85,0-1.61.18-2.27.55s-1.18.87-1.56,1.51c-.38.64-.57,1.38-.57,2.2v10.12h-1.22Z"></path><path class="cls-1" d="M114.36,74.15c-.89,0-1.7-.18-2.43-.53s-1.33-.87-1.77-1.55c-.44-.68-.66-1.51-.66-2.48,0-.64.11-1.2.34-1.69s.58-.91,1.05-1.26,1.08-.64,1.82-.87c.74-.23,1.62-.41,2.65-.53.78-.09,1.48-.18,2.09-.27.61-.09,1.09-.23,1.44-.42s.52-.49.52-.88v-.64c0-1.12-.35-2.01-1.06-2.67s-1.68-.99-2.92-.99c-1.1,0-2.02.24-2.77.72s-1.27,1.1-1.57,1.86l-1.15-.43c.29-.73.72-1.34,1.27-1.83.56-.49,1.2-.85,1.92-1.09s1.48-.36,2.27-.36c.69,0,1.34.1,1.96.29.62.19,1.18.49,1.67.88s.88.89,1.16,1.5c.29.61.43,1.34.43,2.18v10.73h-1.22v-2.77h-.09c-.27.57-.63,1.09-1.09,1.56-.46.47-1.02.84-1.67,1.12-.65.28-1.38.42-2.19.42ZM114.48,73.02c.96,0,1.81-.24,2.55-.7.74-.47,1.32-1.11,1.74-1.93s.63-1.75.63-2.79v-2.26c-.15.13-.37.25-.66.35-.29.1-.62.19-.98.27-.36.08-.74.14-1.14.2-.4.06-.78.11-1.15.15-1.12.13-2.03.34-2.73.62-.7.28-1.22.64-1.54,1.08-.32.45-.49.99-.49,1.62,0,1.05.36,1.87,1.08,2.48.72.61,1.62.91,2.69.91Z"></path><path class="cls-1" d="M135.49,61.78l-1.13.3c-.18-.56-.44-1.04-.77-1.45-.33-.41-.75-.72-1.25-.94-.5-.22-1.1-.33-1.8-.33-1.13,0-2.05.28-2.76.84-.72.56-1.07,1.29-1.07,2.19,0,.73.24,1.34.73,1.81.49.48,1.23.84,2.23,1.08l2.36.59c1.21.3,2.13.78,2.74,1.45.61.67.92,1.5.92,2.49,0,.85-.23,1.6-.69,2.25s-1.09,1.16-1.9,1.53c-.81.37-1.75.55-2.82.55-1.43,0-2.61-.33-3.53-1-.92-.67-1.51-1.63-1.77-2.88l1.17-.3c.22,1,.68,1.76,1.37,2.28.7.52,1.61.78,2.74.78,1.25,0,2.26-.3,3.03-.89.77-.59,1.15-1.35,1.15-2.28,0-.71-.23-1.3-.68-1.79s-1.14-.84-2.06-1.07l-2.45-.6c-1.25-.31-2.19-.8-2.82-1.47-.63-.68-.94-1.51-.94-2.5,0-.83.22-1.55.65-2.18.43-.63,1.03-1.12,1.79-1.47s1.63-.53,2.61-.53c1.3,0,2.36.31,3.18.92s1.41,1.49,1.78,2.62Z"></path><path class="cls-1" d="M143.96,74.15c-.89,0-1.7-.18-2.43-.53s-1.33-.87-1.77-1.55c-.44-.68-.67-1.51-.67-2.48,0-.64.11-1.2.34-1.69.23-.49.58-.91,1.05-1.26s1.08-.64,1.82-.87c.74-.23,1.62-.41,2.65-.53.78-.09,1.48-.18,2.09-.27s1.09-.23,1.44-.42c.35-.19.53-.49.53-.88v-.64c0-1.12-.35-2.01-1.06-2.67s-1.68-.99-2.92-.99c-1.1,0-2.02.24-2.77.72s-1.27,1.1-1.57,1.86l-1.15-.43c.29-.73.72-1.34,1.27-1.83.56-.49,1.2-.85,1.92-1.09s1.48-.36,2.27-.36c.69,0,1.34.1,1.96.29.62.19,1.18.49,1.67.88s.88.89,1.16,1.5c.29.61.43,1.34.43,2.18v10.73h-1.22v-2.77h-.09c-.27.57-.63,1.09-1.09,1.56-.46.47-1.02.84-1.67,1.12-.65.28-1.38.42-2.19.42ZM144.08,73.02c.96,0,1.81-.24,2.55-.7.74-.47,1.32-1.11,1.74-1.93s.63-1.75.63-2.79v-2.26c-.15.13-.38.25-.67.35s-.62.19-.98.27c-.36.08-.74.14-1.14.2-.4.06-.78.11-1.15.15-1.12.13-2.03.34-2.73.62-.7.28-1.22.64-1.54,1.08s-.48.99-.48,1.62c0,1.05.36,1.87,1.08,2.48.72.61,1.62.91,2.69.91Z"></path><path class="cls-1" d="M162.73,73.82v-1.03l9.04-13.05v-.11h-8.54v-1.16h10.09v1.05l-8.96,13.03v.11h9.32v1.16h-10.95Z"></path><path class="cls-1" d="M183.58,74.14c-1.27,0-2.39-.34-3.38-1.02-.99-.68-1.76-1.62-2.33-2.82-.57-1.2-.85-2.57-.85-4.1s.28-2.91.85-4.1c.57-1.2,1.34-2.14,2.33-2.82.99-.69,2.11-1.03,3.38-1.03s2.39.34,3.38,1.03c.99.69,1.76,1.63,2.33,2.83.57,1.2.85,2.57.85,4.1s-.28,2.9-.85,4.1c-.57,1.2-1.34,2.14-2.33,2.82-.99.68-2.11,1.02-3.38,1.02ZM183.58,73.01c1.07,0,2.01-.3,2.81-.91.8-.61,1.43-1.43,1.87-2.46.44-1.03.67-2.18.67-3.45s-.22-2.41-.67-3.44c-.45-1.03-1.07-1.85-1.87-2.46-.8-.61-1.74-.91-2.81-.91s-2.01.3-2.81.91c-.8.61-1.42,1.43-1.87,2.46-.45,1.03-.67,2.18-.67,3.44s.22,2.42.67,3.45c.44,1.03,1.07,1.85,1.87,2.46.8.61,1.74.91,2.81.91Z"></path><path class="cls-1" d="M195.57,63.87v9.96h-1.22v-15.35h1.19v2.43h.12c.36-.79.94-1.43,1.73-1.91s1.74-.72,2.83-.72c1.03,0,1.94.22,2.72.66.78.44,1.4,1.06,1.84,1.87s.66,1.77.66,2.89v10.13h-1.22v-10.08c0-1.31-.39-2.36-1.16-3.15-.78-.8-1.8-1.19-3.07-1.19-.85,0-1.61.19-2.28.56-.67.37-1.19.89-1.57,1.56-.38.67-.57,1.45-.57,2.34Z"></path><path class="cls-1" d="M214.57,74.15c-.89,0-1.7-.18-2.43-.53-.74-.35-1.33-.87-1.77-1.55-.44-.68-.67-1.51-.67-2.48,0-.64.11-1.2.34-1.69.23-.49.58-.91,1.05-1.26.47-.35,1.08-.64,1.82-.87.74-.23,1.62-.41,2.65-.53.78-.09,1.48-.18,2.09-.27s1.09-.23,1.44-.42.52-.49.52-.88v-.64c0-1.12-.35-2.01-1.06-2.67-.71-.66-1.68-.99-2.92-.99-1.1,0-2.02.24-2.77.72s-1.27,1.1-1.57,1.86l-1.15-.43c.29-.73.72-1.34,1.27-1.83.56-.49,1.2-.85,1.92-1.09.72-.24,1.48-.36,2.27-.36.69,0,1.34.1,1.96.29.62.19,1.18.49,1.67.88s.88.89,1.16,1.5c.29.61.43,1.34.43,2.18v10.73h-1.22v-2.77h-.09c-.27.57-.63,1.09-1.09,1.56-.46.47-1.02.84-1.67,1.12-.65.28-1.38.42-2.19.42ZM214.69,73.02c.96,0,1.81-.24,2.55-.7.74-.47,1.32-1.11,1.74-1.93s.63-1.75.63-2.79v-2.26c-.15.13-.37.25-.66.35s-.62.19-.98.27c-.36.08-.74.14-1.14.2-.4.06-.78.11-1.15.15-1.12.13-2.03.34-2.73.62-.7.28-1.22.64-1.54,1.08-.32.45-.48.99-.48,1.62,0,1.05.36,1.87,1.08,2.48.72.61,1.62.91,2.69.91Z"></path><path class="cls-1" d="M235.08,63.87v9.96h-1.22v-15.35h1.19v2.43h.12c.36-.79.94-1.43,1.73-1.91.79-.48,1.74-.72,2.83-.72,1.03,0,1.94.22,2.72.66.78.44,1.4,1.06,1.84,1.87.44.81.66,1.77.66,2.89v10.13h-1.22v-10.08c0-1.31-.39-2.36-1.16-3.15-.78-.8-1.8-1.19-3.07-1.19-.85,0-1.61.19-2.28.56-.67.37-1.19.89-1.57,1.56-.38.67-.57,1.45-.57,2.34Z"></path><path class="cls-1" d="M255.72,74.14c-1.27,0-2.39-.34-3.38-1.02s-1.76-1.62-2.33-2.82c-.57-1.2-.85-2.57-.85-4.1s.28-2.91.85-4.1c.57-1.2,1.34-2.14,2.33-2.82.99-.69,2.11-1.03,3.38-1.03s2.39.34,3.38,1.03c.99.69,1.76,1.63,2.33,2.83.57,1.2.85,2.57.85,4.1s-.28,2.9-.85,4.1c-.57,1.2-1.34,2.14-2.33,2.82s-2.11,1.02-3.38,1.02ZM255.72,73.01c1.07,0,2.01-.3,2.81-.91.8-.61,1.43-1.43,1.87-2.46.44-1.03.66-2.18.66-3.45s-.22-2.41-.67-3.44c-.45-1.03-1.07-1.85-1.87-2.46-.8-.61-1.74-.91-2.81-.91s-2.01.3-2.81.91c-.8.61-1.42,1.43-1.87,2.46-.45,1.03-.67,2.18-.67,3.44s.22,2.42.66,3.45c.44,1.03,1.07,1.85,1.87,2.46.8.61,1.74.91,2.81.91Z"></path><path class="cls-1" d="M266.49,73.82v-15.35h1.19v2.4h.11c.33-.79.9-1.42,1.69-1.89.79-.48,1.7-.71,2.71-.71h.32c.11,0,.21,0,.3.01v1.23c-.08,0-.18-.02-.29-.04-.11-.02-.24-.02-.4-.02-.85,0-1.61.18-2.27.55s-1.18.87-1.56,1.51c-.38.64-.57,1.38-.57,2.2v10.12h-1.22Z"></path><path class="cls-1" d="M281.51,58.47v1.09h-6.71v-1.09h6.71ZM277.07,54.79h1.21v15.4c0,.63.12,1.14.36,1.53.24.4.56.69.96.88.4.19.82.29,1.27.29.22,0,.41-.02.57-.05.16-.03.32-.08.47-.13l.3,1.11c-.19.07-.39.13-.62.17-.23.05-.49.07-.8.07-.64,0-1.24-.14-1.81-.43-.57-.29-1.03-.7-1.38-1.25s-.53-1.21-.53-1.98v-15.62Z"></path><path class="cls-1" d="M292.01,74.14c-1.39,0-2.59-.34-3.62-1.03s-1.82-1.63-2.38-2.82c-.56-1.19-.84-2.55-.84-4.08s.28-2.9.84-4.1c.56-1.2,1.34-2.15,2.32-2.84.99-.69,2.11-1.04,3.38-1.04.86,0,1.67.17,2.44.51.77.34,1.45.84,2.04,1.48.59.65,1.05,1.43,1.39,2.34.34.91.51,1.94.51,3.08v.76h-12.15v-1.11h10.93c0-1.11-.23-2.12-.68-3.01-.45-.89-1.07-1.6-1.85-2.13-.78-.53-1.66-.79-2.63-.79s-1.93.28-2.72.85c-.8.57-1.43,1.34-1.89,2.3s-.7,2.05-.72,3.24v.5c0,1.28.22,2.43.67,3.44.45,1.02,1.09,1.82,1.93,2.41.84.59,1.85.89,3.02.89.84,0,1.56-.14,2.15-.43.6-.28,1.08-.63,1.46-1.03.38-.41.67-.8.86-1.18l1.11.45c-.23.51-.6,1.02-1.09,1.53-.49.51-1.11.93-1.86,1.27-.75.34-1.63.51-2.64.51Z"></path><path class="cls-1" d="M49.75,21.55l-17.85,17.85-8.62-8.62-9.23-9.23c-4.93-4.93-4.93-12.92,0-17.85,4.93-4.93,12.92-4.93,17.85,0,4.93-4.93,12.92-4.93,17.85,0,4.93,4.93,4.93,12.92,0,17.85Z"></path><path class="cls-1" d="M60.88,39.29l-12.12,12.02v20.01c0,1.56-1.27,2.83-2.83,2.83h-7c-1.57,0-2.84-1.27-2.84-2.83v-24.1c0-.76.3-1.48.84-2.01l20-19.84c.53-.53,1.25-.82,2-.82h.01c.75,0,1.47.3,2,.83,3.82,3.86,3.79,10.1-.06,13.91Z"></path><path class="cls-1" d="M27.69,47.22v24.1c0,1.56-1.27,2.83-2.83,2.83h-7c-1.57,0-2.84-1.27-2.84-2.83v-20.01l-12.12-12.02c-3.85-3.81-3.87-10.05-.05-13.91.53-.53,1.25-.83,2-.83h.01c.75,0,1.46.29,2,.82l20,19.84c.53.53.83,1.25.83,2.01Z"></path></g></svg>